# AST/ASF file generated using VICON BodyLanguage
# -----------------------------------------------
:version 1.10
:name VICON
:units
  mass 1.0
  length 0.45
  angle deg
:documentation
   .ast/.asf automatically generated from VICON data using
   VICON BodyBuilder and BodyLanguage model FoxedUp or BRILLIANT.MOD
:root
   order TX TY TZ RX RY RZ
   axis XYZ
   position 0 0 0  
   orientation 0 0 0 
:bonedata
  begin
     id 1 
     name lhipjoint
     direction 0.576517 -0.752066 0.319413 
     length 2.45433 
     axis 0 0 0  XYZ
  end
  begin
     id 2 
     name lfemur
     direction 0.34202 -0.939693 0  
     length 7.54459  
     axis 0 0 20  XYZ
    dof rx ry rz
    limits (-160.0 20.0)
           (-70.0 70.0)
           (-60.0 70.0)
  end
  begin
     id 3 
     name ltibia
     direction 0.34202 -0.939693 0   
     length 7.73986   
     axis 0 0 20   XYZ
    dof rx
    limits (-10.0 170.0)
  end
  begin
     id 4 
     name lfoot
     direction 0.090693 -0.249177 0.964202   
     length 2.28437   
     axis -90 7.62852e-016 20   XYZ
    dof rx rz
    limits (-45.0 90.0)
           (-70.0 20.0)
  end
  begin
     id 5 
     name ltoes
     direction 1.5356e-011 -4.21928e-011 1   
     length 1.14243   
     axis -90 7.62852e-016 20   XYZ
    dof rx
    limits (-90.0 20.0)
  end
  begin
     id 6 
     name rhipjoint
     direction -0.573937 -0.753736 0.320122   
     length 2.44889  
     axis 0 0 0  XYZ 
  end
  begin
     id 7 
     name rfemur
     direction -0.34202 -0.939693 0   
     length 7.50166   
     axis 0 0 -20   XYZ
    dof rx ry rz
    limits (-160.0 20.0)
           (-70.0 70.0)
           (-70.0 60.0)
  end
  begin
     id 8 
     name rtibia
     direction -0.34202 -0.939693 0   
     length 7.54266   
     axis 0 0 -20   XYZ
    dof rx
    limits (-10.0 170.0)
 end
 begin
     id 9 
     name rfoot
     direction -0.114017 -0.31326 0.942798   
     length 2.34212  
     axis -90 -7.62852e-016 -20   XYZ
    dof rx rz
    limits (-45.0 90.0)
           (-20.0 70.0)
  end
  begin
     id 10 
     name rtoes
     direction -1.53557e-011 -4.21867e-011 1   
     length 1.16246   
     axis -90 -7.62852e-016 -20   XYZ
    dof rx
    limits (-90.0 20.0)
  end
  begin
     id 11 
     name lowerback
     direction -0.0228371 0.999155 -0.034167   
     length 2.0537   
     axis 0 0 0   XYZ
    dof rx ry rz
    limits (-20.0 45.0)
           (-30.0 30.0)
           (-30.0 30.0)
  end
  begin
     id 12 
     name upperback
     direction 0.0198981 0.999794 0.00389455   
     length 2.05302   
     axis 0 0 0   XYZ
    dof rx ry rz
    limits (-20.0 45.0)
           (-30.0 30.0)
           (-30.0 30.0)
  end
  begin
     id 13 
     name thorax
     direction 0.0304566 0.99935 0.0192987   
     length 2.05315   
     axis 0 0 0   XYZ
    dof rx ry rz
    limits (-20.0 45.0)
           (-30.0 30.0)
           (-30.0 30.0)
  end
  begin
     id 14 
     name lowerneck
     direction -0.0196762 0.99417 0.106017   
     length 1.82056   
     axis 0 0 0   XYZ
    dof rx ry rz
    limits (-20.0 45.0)
           (-30.0 30.0)
           (-30.0 30.0)
  end
  begin
     id 15 
     name upperneck
     direction 0.00517787 0.9802 -0.197944   
     length 1.83835   
     axis 0 0 0   XYZ
    dof rx ry rz
    limits (-20.0 45.0)
           (-30.0 30.0)
           (-30.0 30.0)
  end
  begin
     id 16
     name head
     direction 0.00211419 0.996945 -0.078081  
     length 1.85629  
     axis 0 0 0   XYZ
    dof rx ry rz
    limits (-20.0 45.0)
           (-30.0 30.0)
           (-30.0 30.0)
  end
  begin
     id 17 
     name lclavicle
     direction 0.930001 0.365811 -0.0357824  
     length 3.81961  
     axis 0 0 0   XYZ
    dof ry rz
    limits (-20.0 10.0)
           (0.0 20.0)
  end
  begin
     id 18 
     name lhumerus
     direction 1 -4.48968e-011 -3.06644e-027   
     length 5.14507   
     axis 180 -30 -90   XYZ
    dof rx ry rz
    limits (-60.0 90.0)
           (-90.0 90.0)
           (-90.0 90.0)
  end
  begin
     id 19
     name lradius
     direction 1 -4.48965e-011 9.06925e-028   
     length 3.50646   
     axis 180 -30 -90   XYZ
    dof rx
    limits (-10.0 170.0)
  end
  begin
     id 20
     name lwrist
     direction 1 -4.48957e-011 1.03922e-027   
     length 1.75323   
     axis -2.56395e-016 90 90   XYZ
    dof ry
    limits (-180.0 0.0)
 end
  begin
     id 21 
     name lhand
     direction 1 -4.48967e-011 2.08017e-027   
     length 0.629969   
     axis -1.32723e-015 90 90   XYZ
    dof rx rz
    limits (-90.0 90.0)
           (-45.0 45.0)
  end
  begin
     id 22 
     name lfingers
     direction 1 -4.49089e-011 4.20095e-027   
     length 0.507897   
     axis -2.6545e-015 90 90   XYZ
    dof rx
    limits (0.0 90.0)
  end
  begin
     id 23
     name lthumb
     direction 0.707107 -6.35001e-011 0.707107   
     length 0.729241   
     axis -90 45 5.05613e-014   XYZ
    dof rx rz
    limits (-45.0 45.0)
           (-45.0 45.0)
  end
  begin
     id 24 
     name rclavicle
     direction -0.881882 0.464123 -0.0829113   
     length 3.47515  
     axis 0 0 0   XYZ 
    dof ry rz
    limits (-10.0 20.0)
           (-20.0 0.0)
  end
  begin
     id 25 
     name rhumerus
     direction -1 -4.48961e-011 -1.55672e-027  
     length 5.232   
     axis 180 30 90   XYZ
    dof rx ry rz
    limits (-90.0 60.0)
           (-90.0 90.0)
           (-90.0 90.0)
  end
  begin
     id 26 
     name rradius
     direction -1 -4.48963e-011 6.18178e-029   
     length 3.65641   
     axis 180 30 90   XYZ
    dof rx
    limits (-10.0 170.0)
  end
  begin
     id 27 
     name rwrist
     direction -1 -4.48982e-011 1.04136e-027   
     length 1.8282   
     axis -2.56395e-016 -90 -90   XYZ
    dof ry
    limits (-180.0 0.0)
  end
  begin
     id 28
     name rhand
     direction -1 -4.48929e-011 2.07378e-027   
     length 0.656807   
     axis -1.32723e-015 -90 -90   XYZ
    dof rx rz
    limits (-90.0 90.0)
           (-45.0 45.0)
  end
  begin
     id 29
     name rfingers
     direction -1 -4.489e-011 4.13816e-027   
     length 0.529535   
     axis -2.6545e-015 -90 -90   XYZ
    dof rx
    limits (0.0 90.0)
  end
  begin
     id 30
     name rthumb
     direction -0.707107 -6.34843e-011 0.707107   
     length 0.760309   
     axis -90 -45 -5.05613e-014   XYZ
    dof rx rz
    limits (-45.0 45.0)
           (-45.0 45.0)
  end
:hierarchy
  begin
    root lhipjoint rhipjoint lowerback
    lhipjoint lfemur
    lfemur ltibia
    ltibia lfoot
    lfoot ltoes
    rhipjoint rfemur
    rfemur rtibia
    rtibia rfoot
    rfoot rtoes
    lowerback upperback
    upperback thorax
    thorax lowerneck lclavicle rclavicle
    lowerneck upperneck
    upperneck head
    lclavicle lhumerus
    lhumerus lradius
    lradius lwrist
    lwrist lhand lthumb
    lhand lfingers
    rclavicle rhumerus
    rhumerus rradius
    rradius rwrist
    rwrist rhand rthumb
    rhand rfingers
  end

#!OML:ASF H:\ManfredETheater\Project 1\Capture day 1\Session 1\subject.ASF
:FULLY-SPECIFIED
:DEGREES
1
root -7.98362 14.8948 44.7125 -153.774 16.4008 -179.555
lowerback 12.8588 1.87385 1.05323
upperback -2.90277 2.88777 1.6167
thorax -10.4159 1.39243 0.52362
lowerneck -16.1585 2.72019 1.83351
upperneck 4.47268 3.94074 -5.66544
head 4.08778 1.72394 -1.72399
rclavicle -3.10104e-014 -7.95139e-016
rhumerus -43.8446 -3.12266 -68.6892
rradius 65.5358
rwrist -0.223234
rhand -27.6371 -7.54668
rfingers 7.12502
rthumb -1.03543 -37.5239
lclavicle -3.10104e-014 -7.95139e-016
lhumerus -33.31 -6.69237 88.7448
lradius 64.3372
lwrist 0.167748
lhand -21.123 -5.98299
lfingers 7.12502
lthumb 5.25555 23.9318
rfemur -27.3887 -9.63768 18.5157
rtibia 71.9146
rfoot -11.7784 -17.9689
rtoes -38.3216
lfemur -38.6137 0.385965 -17.7922
ltibia 73.6896
lfoot -26.3289 -22.6743
ltoes -7.30798
2
root -7.96105 14.8588 44.5057 -154.085 16.0227 -180.264
lowerback 13.5538 1.5092 0.378327
upperback -2.6501 2.30036 1.75076
thorax -10.5719 1.15498 1.16263
lowerneck -16.01 2.89896 1.97724
upperneck 3.98083 4.14158 -5.6811
head 3.92319 1.84118 -1.73862
rclavicle 1.94809e-014 -7.71285e-014
rhumerus -44.1301 -3.89777 -67.163
rradius 64.8881
rwrist 0.262088
rhand -27.3364 -9.1766
rfingers 7.12502
rthumb -0.745023 -39.155
lclavicle 1.94809e-014 -7.71285e-014
lhumerus -31.5302 -7.31425 88.987
lradius 66.1803
lwrist 0.268314
lhand -21.5543 -6.2755
lfingers 7.12502
lthumb 4.83918 23.6492
rfemur -30.3433 -10.4877 17.9607
rtibia 76.8357
rfoot -11.9038 -17.0785
rtoes -39.0359
lfemur -37.026 -0.437435 -18.5681
ltibia 72.596
lfoot -27.0774 -22.2249
ltoes -6.67122
3
root -7.93963 14.8131 44.2979 -154.181 15.4565 -180.756
lowerback 14.0188 1.04492 0.0847309
upperback -2.45172 1.65033 1.9315
thorax -10.6234 0.869822 1.66581
lowerneck -15.6957 3.07738 2.16558
upperneck 3.48462 4.33116 -5.70052
head 3.73267 1.95392 -1.76526
rclavicle -7.55382e-015 -1.51076e-014
rhumerus -44.492 -4.0183 -66.1876
rradius 63.8578
rwrist -2.59546
rhand -30.3461 -6.09261
rfingers 7.12502
rthumb -3.6517 -36.0411
lclavicle -7.55382e-015 -1.51076e-014
lhumerus -29.695 -7.91955 89.0729
lradius 68.1765
lwrist 0.268619
lhand -21.8814 -6.62097
lfingers 7.12502
lthumb 4.52329 23.3107
rfemur -33.3095 -11.3595 17.7388
rtibia 81.2315
rfoot -13.1495 -15.7629
rtoes -37.3835
lfemur -35.6061 -1.13562 -19.1113
ltibia 71.4657
lfoot -27.9013 -21.4323
ltoes -7.04405
4
root -7.91916 14.7847 44.0698 -154.189 14.7154 -180.999
lowerback 14.5103 0.564024 0.22958
upperback -2.24946 1.06663 2.14176
thorax -10.6687 0.593253 1.94379
lowerneck -15.6575 3.18252 2.34916
upperneck 3.17502 4.42034 -5.60286
head 3.63583 2.01442 -1.75969
rclavicle -7.55382e-015 2.06736e-014
rhumerus -44.9723 -4.31469 -65.0638
rradius 63.5757
rwrist -3.05556
rhand -31.7568 -7.03635
rfingers 7.12502
rthumb -5.01392 -36.957
lclavicle -7.55382e-015 2.06736e-014
lhumerus -27.774 -8.68455 89.0889
lradius 70.3763
lwrist 0.0941965
lhand -22.064 -6.71307
lfingers 7.12502
lthumb 4.34694 23.2223
rfemur -36.48 -12.8025 18.0924
rtibia 85.2217
rfoot -14.2241 -15.0589
rtoes -34.9399
lfemur -34.046 -1.89692 -19.3751
ltibia 70.1585
lfoot -28.5657 -20.7214
ltoes -6.43223
5
root -7.90225 14.7862 43.8022 -153.768 13.9852 -181.165
lowerback 14.8296 0.0412651 0.697987
upperback -2.34113 0.508903 2.45017
thorax -10.9387 0.317457 2.14849
lowerneck -15.5147 3.25223 2.29729
upperneck 3.2044 4.5105 -5.51549
head 3.62258 2.06095 -1.7191
rclavicle 0 2.94201e-014
rhumerus -46.0196 -3.18539 -64.295
rradius 64.4376
rwrist -2.47851
rhand -31.5269 -6.29321
rfingers 7.12502
rthumb -4.79193 -36.219
lclavicle 0 2.94201e-014
lhumerus -26.4682 -9.22456 89.2456
lradius 72.9455
lwrist -0.357592
lhand -22.1959 -6.4113
lfingers 7.12502
lthumb 4.21962 23.5267
rfemur -40.2873 -14.2679 18.994
rtibia 88.2644
rfoot -15.3064 -15.6316
rtoes -33.7124
lfemur -32.6467 -2.76796 -19.5549
ltibia 68.586
lfoot -29.3108 -19.9151
ltoes -6.17997
6
root -7.88641 14.7652 43.5555 -153.521 13.48 -181.441
lowerback 15.159 -0.417166 0.864714
upperback -2.29483 -0.0286139 2.69405
thorax -11.0628 0.0662632 2.45398
lowerneck -15.3235 3.3924 2.34133
upperneck 2.99077 4.68231 -5.50847
head 3.53455 2.15392 -1.71438
rclavicle -9.14409e-015 2.78299e-014
rhumerus -46.6902 -2.44575 -63.4297
rradius 64.7101
rwrist -2.61041
rhand -31.9434 -5.84159
rfingers 7.12502
rthumb -5.19404 -35.7579
lclavicle -9.14409e-015 2.78299e-014
lhumerus -25.0379 -9.63738 89.1675
lradius 75.4444
lwrist -0.584477
lhand -22.3257 -6.448
lfingers 7.12502
lthumb 4.09423 23.4924
rfemur -43.8951 -15.4531 19.5351
rtibia 91.2265
rfoot -15.906 -15.3792
rtoes -32.4272
lfemur -31.1683 -3.4977 -19.9208
ltibia 66.9528
lfoot -29.8192 -19.1982
ltoes -5.94756
7
root -7.87295 14.7506 43.2964 -153.171 13.1215 -181.681
lowerback 15.3833 -0.847866 1.1011
upperback -2.26074 -0.514959 2.93852
thorax -11.1394 -0.164315 2.71083
lowerneck -15.1306 3.55349 2.3652
upperneck 2.78379 4.89091 -5.55222
head 3.45098 2.26256 -1.71954
rclavicle 2.5842e-014 3.97569e-015
rhumerus -47.3503 -1.35242 -62.7024
rradius 65.2097
rwrist -2.57037
rhand -32.0926 -5.25797
rfingers 7.12502
rthumb -5.33812 -35.1707
lclavicle 2.5842e-014 3.97569e-015
lhumerus -23.7904 -9.93295 89.0222
lradius 78.1187
lwrist -0.771562
lhand -22.4657 -6.53452
lfingers 7.12502
lthumb 3.95906 23.4084
rfemur -47.7061 -16.4895 20.2317
rtibia 93.6611
rfoot -16.4256 -15.2465
rtoes -31.3179
lfemur -29.6746 -4.17389 -20.3199
ltibia 65.1392
lfoot -30.172 -18.4649
ltoes -5.818
8
root -7.8625 14.7424 43.0245 -152.745 12.9809 -181.908
lowerback 15.5104 -1.22894 1.34969
upperback -2.21534 -0.934775 3.17569
thorax -11.1485 -0.364593 2.93576
lowerneck -14.8272 3.75671 2.46062
upperneck 2.2021 5.14085 -5.58398
head 3.6234 2.41066 -1.911
rclavicle 4.49253e-014 -5.96354e-014
rhumerus -47.9516 0.0536967 -62.0866
rradius 65.92
rwrist -2.2694
rhand -31.8874 -4.64186
rfingers 7.12502
rthumb -5.13997 -34.5595
lclavicle 4.49253e-014 -5.96354e-014
lhumerus -22.758 -10.0957 88.8173
lradius 80.9733
lwrist -0.85617
lhand -22.6046 -6.6985
lfingers 7.12502
lthumb 3.82491 23.2469
rfemur -51.6639 -17.2832 21.0158
rtibia 95.6133
rfoot -16.9124 -15.1974
rtoes -30.5507
lfemur -28.1699 -4.78163 -20.8106
ltibia 63.2095
lfoot -30.3475 -17.7201
ltoes -5.83558
9
root -7.85541 14.7403 42.7403 -152.275 13.1144 -182.136
lowerback 15.5574 -1.5406 1.57943
upperback -2.12929 -1.27278 3.38267
thorax -11.068 -0.527276 3.1143
lowerneck -14.6218 3.98144 2.45273
upperneck 1.91405 5.45245 -5.76842
head 3.50285 2.5681 -1.9486
rclavicle -3.81667e-014 -3.4191e-014
rhumerus -48.4522 1.69933 -61.592
rradius 66.7724
rwrist -1.83755
rhand -31.49 -3.89477
rfingers 7.12502
rthumb -4.75627 -33.8214
lclavicle -3.81667e-014 -3.4191e-014
lhumerus -21.9412 -10.146 88.5328
lradius 84.0024
lwrist -0.792937
lhand -22.7657 -6.99783
lfingers 7.12502
lthumb 3.66935 22.9503
rfemur -55.6849 -17.7444 21.8066
rtibia 96.9719
rfoot -17.3065 -15.1291
rtoes -30.2238
lfemur -26.6315 -5.29903 -21.4397
ltibia 61.1304
lfoot -30.2299 -16.971
ltoes -6.1063
10
root -7.85135 14.7448 42.4437 -151.82 13.5386 -182.374
lowerback 15.5866 -1.77852 1.77146
upperback -1.9772 -1.52829 3.54422
thorax -10.9063 -0.651573 3.23992
lowerneck -14.3923 4.23606 2.43833
upperneck 1.53097 5.8089 -6.01798
head 3.35022 2.74991 -2.00454
rclavicle 3.53837e-014 -5.32743e-014
rhumerus -48.8322 3.50957 -61.2104
rradius 67.7323
rwrist -1.32337
rhand -31.01 -3.12486
rfingers 7.12502
rthumb -4.2928 -33.0613
lclavicle 3.53837e-014 -5.32743e-014
lhumerus -21.3518 -10.0973 88.156
lradius 87.2023
lwrist -0.573791
lhand -22.9458 -7.46038
lfingers 7.12502
lthumb 3.49546 22.4907
rfemur -59.6121 -17.8504 22.5209
rtibia 97.7172
rfoot -17.7233 -14.9086
rtoes -30.131
lfemur -25.0273 -5.71878 -22.2342
ltibia 58.9377
lfoot -29.7355 -16.2528
ltoes -6.66532
11
root -7.85042 14.7569 42.135 -151.404 14.2639 -182.614
lowerback 15.6446 -1.93573 1.92131
upperback -1.75624 -1.69219 3.6509
thorax -10.6884 -0.732761 3.30413
lowerneck -14.1146 4.50803 2.41494
upperneck 1.04064 6.19164 -6.32416
head 3.15643 2.94868 -2.07781
rclavicle -1.03368e-014 -5.64548e-014
rhumerus -49.0802 5.40122 -60.9317
rradius 68.7555
rwrist -0.781048
rhand -30.5485 -2.42961
rfingers 7.12502
rthumb -3.84715 -32.3746
lclavicle -1.03368e-014 -5.64548e-014
lhumerus -20.9939 -9.95818 87.6909
lradius 90.5314
lwrist -0.250059
lhand -23.1643 -8.0864
lfingers 7.12502
lthumb 3.28442 21.868
rfemur -63.3613 -17.6085 23.1338
rtibia 97.8441
rfoot -18.1098 -14.5367
rtoes -30.3949
lfemur -23.384 -6.01621 -23.1979
ltibia 56.6868
lfoot -28.7629 -15.6272
ltoes -7.45948
12
root -7.85211 14.7783 41.8155 -151.074 15.2902 -182.837
lowerback 15.8175 -2.01236 2.03995
upperback -1.45278 -1.7594 3.68864
thorax -10.4503 -0.768316 3.28796
lowerneck -13.781 4.78479 2.38211
upperneck 0.439227 6.58077 -6.66561
head 2.91808 3.15647 -2.16338
rclavicle -6.83819e-014 4.21423e-014
rhumerus -49.1802 7.29906 -60.7668
rradius 69.8065
rwrist -0.280003
rhand -30.1915 -1.90158
rfingers 7.12502
rthumb -3.50237 -31.8525
lclavicle -6.83819e-014 4.21423e-014
lhumerus -20.84 -9.72943 87.1294
lradius 93.9082
lwrist 0.0855942
lhand -23.4629 -8.86375
lfingers 7.12502
lthumb 2.99607 21.0949
rfemur -66.7945 -17.0325 23.6239
rtibia 97.3675
rfoot -18.5162 -13.9862
rtoes -30.9555
lfemur -21.6993 -6.15628 -24.3089
ltibia 54.4361
lfoot -27.1255 -15.3055
ltoes -8.24378
13
root -7.8554 14.8098 41.486 -150.863 16.5692 -183.039
lowerback 16.1739 -2.02503 2.13896
upperback -1.06974 -1.7449 3.65203
thorax -10.2342 -0.764515 3.18657
lowerneck -13.3947 5.05205 2.33699
upperneck -0.249199 6.9553 -7.02521
head 2.6434 3.36334 -2.25717
rclavicle -2.54444e-014 5.80451e-014
rhumerus -49.1186 9.13961 -60.7264
rradius 70.8409
rwrist 0.12995
rhand -29.9964 -1.60302
rfingers 7.12502
rthumb -3.31401 -31.557
lclavicle -2.54444e-014 5.80451e-014
lhumerus -20.8734 -9.40176 86.4875
lradius 97.2274
lwrist 0.326542
lhand -23.8998 -9.70611
lfingers 7.12502
lthumb 2.5741 20.2581
rfemur -69.7886 -16.1951 23.9895
rtibia 96.3147
rfoot -18.973 -13.23
rtoes -31.722
lfemur -19.9993 -6.14415 -25.5282
ltibia 52.2401
lfoot -24.6068 -15.4635
ltoes -8.86906
14
root -7.85946 14.8518 41.1481 -150.762 18.0985 -183.206
lowerback 16.7366 -1.97661 2.20674
upperback -0.617657 -1.65161 3.53899
thorax -10.0628 -0.720961 3.00606
lowerneck -12.9501 5.30015 2.27152
upperneck -1.01374 7.30141 -7.38869
head 2.33432 3.56305 -2.35468
rclavicle 2.22639e-014 9.54166e-015
rhumerus -48.8667 10.8908 -60.8183
rradius 71.8152
rwrist 0.428448
rhand -29.9606 -1.54575
rfingers 7.12502
rthumb -3.2794 -31.5003
lclavicle 2.22639e-014 9.54166e-015
lhumerus -21.0788 -8.93888 85.7894
lradius 100.365
lwrist 0.370885
lhand -24.4985 -10.5539
lfingers 7.12502
lthumb 1.99594 19.4165
rfemur -72.3308 -15.1381 24.2657
rtibia 94.7662
rfoot -19.4686 -12.2613
rtoes -32.6847
lfemur -18.3603 -5.9428 -26.8215
ltibia 50.1452
lfoot -20.9827 -16.1851
ltoes -9.03153
15
root -7.86322 14.9039 40.8031 -150.772 19.8176 -183.346
lowerback 17.5295 -1.88578 2.23581
upperback -0.107946 -1.50187 3.35453
thorax -9.95819 -0.646605 2.76141
lowerneck -12.4818 5.51894 2.18604
upperneck -1.81802 7.605 -7.74602
head 2.00887 3.74744 -2.45326
rclavicle 3.02153e-014 1.11319e-014
rhumerus -48.4045 12.5296 -61.0349
rradius 72.7012
rwrist 0.599829
rhand -30.0606 -1.73783
rfingers 7.12502
rthumb -3.37599 -31.6908
lclavicle 3.02153e-014 1.11319e-014
lhumerus -21.4208 -8.32536 85.0679
lradius 103.175
lwrist 0.151537
lhand -25.2783 -11.3038
lfingers 7.12502
lthumb 1.24281 18.6723
rfemur -74.3898 -13.9494 24.4895
rtibia 92.8052
rfoot -19.9688 -11.1407
rtoes -33.8965
lfemur -16.8522 -5.57505 -28.1436
ltibia 48.1945
lfoot -16.0407 -17.4331
ltoes -8.43127
